<svg xmlns="http://www.w3.org/2000/svg" xmlns:xlink="http://www.w3.org/1999/xlink" viewBox="0,0,256,256" width="500px" height="500px" fill-rule="nonzero"><g fill="#6695ff" fill-rule="nonzero" stroke="none" stroke-width="1" stroke-linecap="butt" stroke-linejoin="miter" stroke-miterlimit="10" stroke-dasharray="" stroke-dashoffset="0" font-family="none" font-weight="none" font-size="none" text-anchor="none" style="mix-blend-mode: normal"><g transform="scale(5.12,5.12)"><path d="M19.50977,4.31445c-9.921,1.67 -17.50977,10.29755 -17.50977,20.68555c0,10.388 7.58877,19.01555 17.50977,20.68555c-8.454,-3.07 -14.50977,-11.18355 -14.50977,-20.68555c0,-9.502 6.05577,-17.61555 14.50977,-20.68555zM27,5c-9.316,0 -17.12075,6.379 -19.34375,15h38.68945c-2.224,-8.621 -10.0297,-15 -19.3457,-15zM7.24805,22c-0.099,0.657 -0.16327,1.324 -0.19727,2h39.89844c-0.034,-0.676 -0.09727,-1.343 -0.19727,-2zM7.05078,26c0.034,0.676 0.09827,1.343 0.19727,2h39.50391c0.099,-0.657 0.16327,-1.324 0.19727,-2zM7.65625,30c2.223,8.621 10.02775,15 19.34375,15c9.316,0 17.12075,-6.379 19.34375,-15z"></path></g></g></svg>