<?xml version="1.0" encoding="UTF-8"?>
<svg id="Layer_2" data-name="Layer 2" xmlns="http://www.w3.org/2000/svg" viewBox="0 0 154.69 91.08">
  <defs>
    <style>
      .cls-1 {
        fill: #6695ff;
      }

      .cls-2 {
        fill: #de71ff;
      }
    </style>
  </defs>
  <g id="Graphic_Elements" data-name="Graphic Elements">
    <path class="cls-2" d="m106.43,64.82c-.32-.78-26.9-53.44-27.33-54.16-1.4-3.35-3.85-6.3-7.23-8.27-8.26-4.84-18.87-2.07-23.71,6.19-3.32,5.66-3.06,12.44.1,17.69.32.78,25.76,51.18,26.19,51.91.32.78.7,1.53,1.14,2.26,1.4,3.35,3.85,6.3,7.23,8.27,8.26,4.84,18.87,2.07,23.71-6.19,3.32-5.66,3.06-12.44-.1-17.69Z"/>
    <path class="cls-1" d="m75.74,29.18c2.91-3.1,4.69-7.27,4.69-11.85C80.44,7.76,72.68,0,63.11,0,57.22,0,52.03,2.94,48.89,7.42c-.57.61-43.72,53.79-44.2,54.47-2.91,3.1-4.69,7.27-4.69,11.85,0,9.57,7.76,17.33,17.33,17.33,5.89,0,11.08-2.94,14.21-7.42.57-.61,43.72-53.79,44.2-54.47Z"/>
    <path class="cls-1" d="m150.05,29.38c2.87-3.06,4.64-7.18,4.64-11.71,0-9.46-7.67-17.12-17.12-17.12-5.81,0-10.95,2.9-14.04,7.33-.56.6-43.2,53.14-43.67,53.82-2.87,3.06-4.64,7.18-4.64,11.71,0,9.46,7.67,17.12,17.12,17.12,5.81,0,10.95-2.9,14.04-7.33.56-.6,43.2-53.14,43.67-53.82Z"/>
  </g>
</svg>