<?xml version="1.0" encoding="UTF-8"?>
<svg xmlns="http://www.w3.org/2000/svg" xmlns:xlink="http://www.w3.org/1999/xlink" viewBox="0 0 958.11 883.21">
  <defs>
    <style>
      .cls-1 {
        fill: #fff;
      }

      .cls-2, .cls-3 {
        fill: #6695ff;
      }

      .cls-3 {
        mix-blend-mode: multiply;
        opacity: .3;
      }

      .cls-4 {
        isolation: isolate;
      }
    </style>
  </defs>
  <g class="cls-4">
    <g id="Layer_2" data-name="Layer 2">
      <g id="Layer_1-2" data-name="Layer 1">
        <g>
          <path class="cls-3" d="m673.88,434.72c11.28,35.46,55.69,59.7,88.27,41.73,19.18-10.58,29.65-31.55,43.16-48.78,18.85-24.05,45.35-42.02,74.67-50.63,24.91-7.32,54.42-9.7,69.84-30.59,14.25-19.29,9.1-48.49-7.56-65.73-79.44-82.19-304.16,41.49-268.38,154Z"/>
          <path class="cls-2" d="m184.67,175.57c-74.27,68.24-128.46,165.82-120.1,266.33,8.08,97.24,71.22,179.87,131.83,256.34,56.13,70.83,124.07,147.91,214.4,150.84,55.13,1.79,106.73-25.35,153.95-53.87,80.76-48.79,157.67-103.95,229.78-164.79,44.66-37.68,89.64-81.09,103.04-137.96,20.14-85.44-36.41-168.22-89.85-237.86C737.97,163.71,629.49,12.11,503.31.45c-95.3-8.8-252.13,114.01-318.64,175.12Z"/>
          <path class="cls-1" d="m468.19,692.03c-1.08,0-2.14-.55-2.74-1.54-.91-1.51-.43-3.48,1.08-4.39,78.96-47.7,154.76-102.06,225.29-161.56,41.1-34.69,80.63-73.12,91.48-119.13.4-1.71,2.12-2.83,3.84-2.38,1.72.41,2.79,2.13,2.38,3.84-11.27,47.83-51.64,87.17-93.58,122.56-70.78,59.72-146.85,114.27-226.1,162.15-.52.31-1.09.46-1.66.46Z"/>
          <path class="cls-3" d="m.08,262.61c-.73,22.07,3.03,47.92,22.2,58.87,12.65,7.22,28.23,5.59,42.66,7.55,32.31,4.38,58.71,26.77,86.73,43.46,28.01,16.69,65.1,27.65,92.04,9.28,22.67-15.46,29.33-47.31,22.53-73.89-6.81-26.58-24.37-48.96-42.34-69.7s-37.12-41.2-48.25-66.28c-9.26-20.87-12.73-44.48-25.68-63.28C66.07-13.28,2.02,204.48.08,262.61Z"/>
          <image width="1680" height="1682" transform="translate(64.18 6.11) scale(.43)" xlink:href="../../../../Pictures/me.png"/>
          <path class="cls-3" d="m378.33,746.38c34.1-7.28,75.79,8.31,85.15,41.9,5.63,20.19-1.75,42.54-15.62,58.26-13.87,15.72-33.42,25.48-53.55,31.33-24.84,7.21-53.11,8.54-75.18-4.96-74.49-45.58,8.33-115.67,59.2-126.53Z"/>
          <path class="cls-1" d="m303.47,727.57c-.94,0-1.88-.41-2.51-1.21-52.6-66.36-118.06-148.96-125.7-240.83-.15-1.76,1.16-3.31,2.93-3.45,1.62-.22,3.3,1.15,3.45,2.92,7.48,89.94,72.28,171.7,124.34,237.39,1.1,1.39.87,3.4-.52,4.49-.59.47-1.29.69-1.99.69Z"/>
        </g>
      </g>
    </g>
  </g>
</svg>